{
  "accessors": [
    {
      "bufferView": 2,
      "componentType": 5126,
      "count": 38487,
      "max": [
        1.0405867099761963,
        0.7703672051429749,
        1.2909431457519531
      ],
      "min": [
        -1.1233079433441162,
        -0.4376077651977539,
        0.17831766605377197
      ],
      "type": "VEC3"
    },
    {
      "bufferView": 2,
      "byteOffset": 461844,
      "componentType": 5126,
      "count": 38487,
      "max": [
        0.9999488592147827,
        0.9999470114707947,
        0.999999463558197
      ],
      "min": [
        -0.9999986886978149,
        -0.9999146461486816,
        -0.9999943971633911
      ],
      "type": "VEC3"
    },
    {
      "bufferView": 1,
      "componentType": 5126,
      "count": 38487,
      "max": [
        0.9998320937156677,
        0.9930418729782104
      ],
      "min": [
        0.0001220703125,
        0.00012226833496242762
      ],
      "type": "VEC2"
    },
    {
      "bufferView": 0,
      "componentType": 5125,
      "count": 149940,
      "type": "SCALAR"
    }
  ],
  "asset": {
    "extras": {
      "author": "Historiska (https://sketchfab.com/historiska)",
      "license": "CC-BY-4.0 (http://creativecommons.org/licenses/by/4.0/)",
      "source": "https://sketchfab.com/3d-models/the-kungsara-bench-3c2b1ebcba444ec58c00dc2d89e69db6",
      "title": "The Kungsåra Bench"
    },
    "generator": "Sketchfab-11.53.2",
    "version": "2.0"
  },
  "bufferViews": [
    {
      "buffer": 0,
      "byteLength": 599760,
      "name": "floatBufferViews",
      "target": 34963
    },
    {
      "buffer": 0,
      "byteLength": 307896,
      "byteOffset": 599760,
      "byteStride": 8,
      "name": "floatBufferViews",
      "target": 34962
    },
    {
      "buffer": 0,
      "byteLength": 923688,
      "byteOffset": 907656,
      "byteStride": 12,
      "name": "floatBufferViews",
      "target": 34962
    }
  ],
  "buffers": [
    {
      "byteLength": 1831344,
      "uri": "scene.bin"
    }
  ],
  "images": [
    {
      "uri": "textures/tex_u1_v1_baseColor.jpeg"
    }
  ],
  "materials": [
    {
      "doubleSided": true,
      "name": "tex_u1_v1",
      "pbrMetallicRoughness": {
        "baseColorTexture": {
          "index": 0
        },
        "metallicFactor": 0.9688270848968589,
        "roughnessFactor": 0.6157885184769134
      }
    }
  ],
  "meshes": [
    {
      "name": "Object_0",
      "primitives": [
        {
          "attributes": {
            "NORMAL": 1,
            "POSITION": 0,
            "TEXCOORD_0": 2
          },
          "indices": 3,
          "material": 0,
          "mode": 4
        }
      ]
    }
  ],
  "nodes": [
    {
      "children": [
        1
      ],
      "matrix": [
        0.961306095123291,
        0.01312607992440456,
        0.27516958117485046,
        0.0,
        0.2751401364803314,
        0.004034741781652187,
        -0.9613956809043884,
        0.0,
        -0.013729594647884369,
        0.9999057054519653,
        0.00026711032842308136,
        0.0,
        -0.015445738099515438,
        -0.0007331915549002506,
        -0.036713019013404846,
        1.0
      ],
      "name": "Sketchfab_model"
    },
    {
      "children": [
        2
      ],
      "name": "model.obj.cleaner.materialmerger.gles"
    },
    {
      "mesh": 0,
      "name": "Object_2"
    }
  ],
  "samplers": [
    {
      "magFilter": 9729,
      "minFilter": 9987,
      "wrapS": 10497,
      "wrapT": 10497
    }
  ],
  "scene": 0,
  "scenes": [
    {
      "name": "Sketchfab_Scene",
      "nodes": [
        0
      ]
    }
  ],
  "textures": [
    {
      "sampler": 0,
      "source": 0
    }
  ]
}
