{
  "accessors": [
    {
      "bufferView": 2,
      "componentType": 5126,
      "count": 30115,
      "max": [
        0.19745942950248718,
        0.11274067312479019,
        0.0533565878868103
      ],
      "min": [
        -0.2832460403442383,
        -0.10923005640506744,
        -0.05771461874246597
      ],
      "type": "VEC3"
    },
    {
      "bufferView": 2,
      "byteOffset": 361380,
      "componentType": 5126,
      "count": 30115,
      "max": [
        0.9997869729995728,
        0.9995993375778198,
        0.9999805688858032
      ],
      "min": [
        -0.9998528957366943,
        -0.999748945236206,
        -0.9999945163726807
      ],
      "type": "VEC3"
    },
    {
      "bufferView": 1,
      "componentType": 5126,
      "count": 30115,
      "max": [
        0.6357010006904602,
        0.9981539845466614
      ],
      "min": [
        0.0018339999951422215,
        0.0026400000788271427
      ],
      "type": "VEC2"
    },
    {
      "bufferView": 0,
      "componentType": 5125,
      "count": 150702,
      "type": "SCALAR"
    }
  ],
  "asset": {
    "extras": {
      "author": "Nyilonelycompany (https://sketchfab.com/Nyilonelycompany)",
      "license": "CC-BY-4.0 (http://creativecommons.org/licenses/by/4.0/)",
      "source": "https://sketchfab.com/3d-models/tiger-rescan-photo-test-7f30a460abbc41a49f86984d8a6e791c",
      "title": "Tiger Rescan Photo Test"
    },
    "generator": "Sketchfab-11.53.2",
    "version": "2.0"
  },
  "bufferViews": [
    {
      "buffer": 0,
      "byteLength": 602808,
      "name": "floatBufferViews",
      "target": 34963
    },
    {
      "buffer": 0,
      "byteLength": 240920,
      "byteOffset": 602808,
      "byteStride": 8,
      "name": "floatBufferViews",
      "target": 34962
    },
    {
      "buffer": 0,
      "byteLength": 722760,
      "byteOffset": 843728,
      "byteStride": 12,
      "name": "floatBufferViews",
      "target": 34962
    }
  ],
  "buffers": [
    {
      "byteLength": 1566488,
      "uri": "scene.bin"
    }
  ],
  "images": [
    {
      "uri": "textures/TextureAtlas_0_baseColor.png"
    }
  ],
  "materials": [
    {
      "doubleSided": true,
      "name": "TextureAtlas_0",
      "pbrMetallicRoughness": {
        "baseColorTexture": {
          "index": 0
        },
        "metallicFactor": 0.0
      }
    }
  ],
  "meshes": [
    {
      "name": "texturedMesh_TextureAtlas_0_0",
      "primitives": [
        {
          "attributes": {
            "NORMAL": 1,
            "POSITION": 0,
            "TEXCOORD_0": 2
          },
          "indices": 3,
          "material": 0,
          "mode": 4
        }
      ]
    }
  ],
  "nodes": [
    {
      "children": [
        1
      ],
      "matrix": [
        1.0,
        0.0,
        0.0,
        0.0,
        0.0,
        2.220446049250313e-16,
        -1.0,
        0.0,
        0.0,
        1.0,
        2.220446049250313e-16,
        0.0,
        0.0,
        0.0,
        0.0,
        1.0
      ],
      "name": "Sketchfab_model"
    },
    {
      "children": [
        2
      ],
      "matrix": [
        0.009999999776482582,
        0.0,
        0.0,
        0.0,
        0.0,
        0.0,
        0.009999999776482582,
        0.0,
        0.0,
        -0.009999999776482582,
        0.0,
        0.0,
        0.0,
        0.0,
        0.0,
        1.0
      ],
      "name": "36851ab5527a4d7db68fa8a7061fda75.fbx"
    },
    {
      "children": [
        3
      ],
      "name": "RootNode"
    },
    {
      "children": [
        4
      ],
      "matrix": [
        99.64634193940253,
        8.402860463832031,
        1.218557792071498e-06,
        0.0,
        8.361346315551552,
        -99.15404280688193,
        9.92800124503437,
        0.0,
        0.8342372360698095,
        -9.892889211719703,
        -99.50596121417833,
        0.0,
        5.675246939063072e-08,
        10.110472679138184,
        -5.820766091346741e-08,
        1.0
      ],
      "name": "texturedMesh"
    },
    {
      "mesh": 0,
      "name": "texturedMesh_TextureAtlas_0_0"
    }
  ],
  "samplers": [
    {
      "magFilter": 9729,
      "minFilter": 9987,
      "wrapS": 10497,
      "wrapT": 10497
    }
  ],
  "scene": 0,
  "scenes": [
    {
      "name": "Sketchfab_Scene",
      "nodes": [
        0
      ]
    }
  ],
  "textures": [
    {
      "sampler": 0,
      "source": 0
    }
  ]
}
